<svg width="1083" height="363" xmlns="http://www.w3.org/2000/svg" xmlns:xlink="http://www.w3.org/1999/xlink" overflow="hidden"><defs><clipPath id="clip0"><rect x="0" y="0" width="1083" height="363"/></clipPath></defs><g clip-path="url(#clip0)"><rect x="0" y="0" width="1083" height="363.279"/><path d="M20.5 40.2791C20.5 28.8114 29.7893 19.515 41.2483 19.515L1042.75 19.515C1054.21 19.515 1063.5 28.8114 1063.5 40.2791L1063.5 324C1063.5 335.468 1054.21 344.764 1042.75 344.764L41.2483 344.764C29.7893 344.764 20.5 335.468 20.5 324Z" stroke="#FFFFFF" stroke-width="16.6615" stroke-miterlimit="8" fill="#FFFFFF" fill-rule="evenodd"/><g><g><g><path d="M592.992 621.497C588.65 621.497 584.218 624.992 583.055 629.333L551.33 747.728 573.137 747.728 588.714 689.592 671.65 747.728 707.862 747.728 613.531 681.986 731.367 621.497 696.908 621.497 592.547 675.284 606.96 621.497Z" fill="#231815" transform="matrix(1 0 0 1.00113 -177.169 -571.885)"/><path d="M761.423 621.497C754.188 621.497 746.804 627.322 744.865 634.558L714.54 747.728 852.309 747.728 856.968 730.341 741.004 730.341 751.679 690.498 831.504 690.498 835.967 673.836 756.144 673.836 765.801 637.796 880.208 637.796 884.575 621.497Z" fill="#231815" transform="matrix(1 0 0 1.00113 -177.169 -571.885)"/><path d="M925.988 621.497C920.199 621.497 914.291 626.157 912.74 631.945L881.716 747.728 903.522 747.728 937.345 621.497Z" fill="#231815" transform="matrix(1 0 0 1.00113 -177.169 -571.885)"/><path d="M561.334 759.138C554.098 759.138 546.714 764.963 544.775 772.199L514.45 885.372 644.504 885.372 649.163 867.985 540.914 867.985 570.078 759.138Z" fill="#231815" transform="matrix(1 0 0 1.00113 -177.169 -571.885)"/><path d="M709.181 759.138C703.392 759.138 697.483 763.798 695.932 769.587L664.909 885.372 686.714 885.372 720.537 759.138Z" fill="#231815" transform="matrix(1 0 0 1.00113 -177.169 -571.885)"/><path d="M932.257 759.138C925.021 759.138 917.637 764.963 915.699 772.199L885.373 885.372 1022.1 885.372 1026.76 867.985 911.837 867.985 922.513 828.141 1002.34 828.141 1006.8 811.479 926.978 811.479 936.634 775.437 1050 775.437 1054.36 759.138Z" fill="#231815" transform="matrix(1 0 0 1.00113 -177.169 -571.885)"/><path d="M1079.06 759.138C1073.27 759.138 1067.36 763.798 1065.81 769.587L1034.79 885.372 1056.4 885.372 1085.9 775.258 1176.17 775.258C1179.48 775.258 1181.47 775.801 1182.45 776.525 1183.23 777.25 1183.33 779.061 1182.65 781.596L1174.28 812.434C1173.6 814.969 1172.53 816.781 1171.36 817.505 1170 818.229 1167.76 818.591 1164.45 818.591L1094.93 818.591 1158.05 885.372 1191.9 885.372 1139.56 835.253 1155.51 835.253C1168.74 835.253 1178.28 833.804 1183.93 830.906 1189.57 828.009 1193.85 821.489 1196.47 811.709L1204.6 781.776C1206.93 773.083 1206.39 767.106 1203.37 763.846 1200.1 760.767 1192.75 759.138 1181.46 759.138Z" fill="#231815" transform="matrix(1 0 0 1.00113 -177.169 -571.885)"/><path d="M553.116 174.607C547.327 174.607 541.418 179.267 539.867 185.056L508.844 300.841 530.143 300.841 549.651 228.033C552.756 216.442 554.851 210.342 556.412 203.098L556.983 203.098C560.52 208.35 564.817 212.557 569.923 217.628L652.604 300.841 665.54 300.841 699.363 174.607 678.064 174.607 658.848 242.147C654.743 256.574 652.582 265.19 651.891 269.899L651.322 269.899C647.166 264.828 643.009 260.802 638.614 255.912L558.956 176.807C557.556 175.427 555.544 174.607 553.116 174.607Z" fill="#231815" transform="matrix(1 0 -6.81217e-09 1.00113 23.8242 13.3059)"/><path d="M1001.94 810.281C1012.65 810.281 1019.65 807.419 1024.6 803.605 1029.32 799.973 1033.89 793.574 1036.69 782.315L1053.71 714.041C1056.47 702.964 1055.09 696.564 1052.23 692.751 1049.14 689.119 1043.61 686.075 1032.9 686.075L936.284 686.075C925.388 686.075 918.338 689.119 913.438 692.751 908.492 696.564 904.108 702.964 901.347 714.041L884.33 782.315C881.523 793.574 882.717 799.973 885.807 803.605 888.852 807.419 894.429 810.281 905.325 810.281ZM1015.27 786.673C1014.63 789.216 1013.63 791.032 1012.36 791.758 1011.09 792.485 1009.01 792.848 1005.74 792.848L915.846 792.848 910.215 792.848C906.765 792.848 904.676 792.485 903.768 791.758 902.859 791.032 902.949 789.216 903.582 786.673L922.781 709.65C923.415 707.108 924.367 705.473 925.637 704.747 926.908 704.021 929.223 703.476 932.492 703.476L1028.01 703.476C1031.28 703.476 1033.14 704.021 1034.05 704.747 1034.96 705.473 1035.1 707.108 1034.46 709.65Z" fill="#231815" transform="matrix(1.07379 0 0 1 -194.228 -634.678)"/><path d="M329.862 619.978C314.65 619.978 299.126 632.224 295.05 647.436L231.294 885.37 480.351 885.371 494.222 833.586 297.757 833.585 354.995 619.978Z" fill="#888888" transform="matrix(1 0 0 1.00113 -177.169 -571.885)"/><path d="M475.735 619.979 325.878 728.643 401.606 728.643 551.463 619.979Z" fill="#C5006F" transform="matrix(1 0 0 1.00113 -177.169 -571.885)"/><path d="M325.878 728.643 418.495 833.586 494.222 833.586 401.606 728.643Z" fill="#DBDCDC" transform="matrix(1 0 0 1.00113 -177.169 -571.885)"/><path d="M325.878 728.642 418.495 833.586 297.757 833.585Z" fill="#231815" transform="matrix(1 0 0 1.00113 -177.169 -571.885)"/><path d="M354.995 619.978 475.736 619.978 325.878 728.642Z" fill="#231815" transform="matrix(1 0 0 1.00113 -177.169 -571.885)"/></g></g></g></g></svg>